<svg xmlns="http://www.w3.org/2000/svg" xmlns:xlink="http://www.w3.org/1999/xlink" width="436" height="436" viewBox="0 0 436 436">
  <defs>
    <clipPath id="clip-Artboard_2">
      <rect width="436" height="436"/>
    </clipPath>
  </defs>
  <g id="Artboard_2" data-name="Artboard – 2" clip-path="url(#clip-Artboard_2)">
    <rect width="436" height="436" fill="#fff"/>
    <g id="Group_177" data-name="Group 177" transform="translate(-1363 -1256)">
      <g id="Path_60" data-name="Path 60" transform="translate(1362 1255)" fill="#ffe200">
        <path d="M 437 437 L 2 437 L 2 2 L 437 2 L 437 437 Z" stroke="none"/>
        <path d="M 4 4 L 4 435 L 435 435 L 435 4 L 4 4 M 0 0 L 439 0 L 439 439 L 0 439 L 0 0 Z" stroke="none"/>
      </g>
      <g id="Group_23" data-name="Group 23" transform="translate(7 124)">
        <path id="Path_62" data-name="Path 62" d="M1435.4,1431.682l13.9-115.183,73.1,63.287,73.5-107.975,54.028,39.97,64.394-86.163" fill="none" stroke="#000" stroke-width="4"/>
        <g id="Ellipse_1" data-name="Ellipse 1" transform="translate(1422 1418)" fill="#fff" stroke="#000" stroke-width="4">
          <circle cx="13.5" cy="13.5" r="13.5" stroke="none"/>
          <circle cx="13.5" cy="13.5" r="11.5" fill="none"/>
        </g>
        <g id="Path_63" data-name="Path 63" transform="translate(1435 1304)" fill="#6200ff">
          <path d="M 13.5 25 C 10.4282398223877 25 7.540339946746826 23.80378913879395 5.368269920349121 21.63172912597656 C 3.196209907531738 19.45965957641602 2 16.5717601776123 2 13.5 C 2 10.4282398223877 3.196209907531738 7.540339946746826 5.368269920349121 5.368269920349121 C 7.540339946746826 3.196209907531738 10.4282398223877 2 13.5 2 C 16.5717601776123 2 19.45965957641602 3.196209907531738 21.63172912597656 5.368269920349121 C 23.80378913879395 7.540339946746826 25 10.4282398223877 25 13.5 C 25 16.5717601776123 23.80378913879395 19.45965957641602 21.63172912597656 21.63172912597656 C 19.45965957641602 23.80378913879395 16.5717601776123 25 13.5 25 Z" stroke="none"/>
          <path d="M 13.5 4 C 8.261680603027344 4 4 8.261680603027344 4 13.5 C 4 18.73831939697266 8.261680603027344 23 13.5 23 C 18.73831939697266 23 23 18.73831939697266 23 13.5 C 23 8.261680603027344 18.73831939697266 4 13.5 4 M 13.5 0 C 20.95584106445312 0 27 6.044160842895508 27 13.5 C 27 20.95584106445312 20.95584106445312 27 13.5 27 C 6.044160842895508 27 0 20.95584106445312 0 13.5 C 0 6.044160842895508 6.044160842895508 0 13.5 0 Z" stroke="none"/>
        </g>
        <g id="Ellipse_3" data-name="Ellipse 3" transform="translate(1508 1365)" fill="#00ffcb" stroke="#000" stroke-width="4">
          <circle cx="13.5" cy="13.5" r="13.5" stroke="none"/>
          <circle cx="13.5" cy="13.5" r="11.5" fill="none"/>
        </g>
        <g id="Path_64" data-name="Path 64" transform="translate(1582 1261)" fill="#006bff">
          <path d="M 13.5 25 C 10.4282398223877 25 7.540339946746826 23.80378913879395 5.368269920349121 21.63172912597656 C 3.196209907531738 19.45965957641602 2 16.5717601776123 2 13.5 C 2 10.4282398223877 3.196209907531738 7.540339946746826 5.368269920349121 5.368269920349121 C 7.540339946746826 3.196209907531738 10.4282398223877 2 13.5 2 C 16.5717601776123 2 19.45965957641602 3.196209907531738 21.63172912597656 5.368269920349121 C 23.80378913879395 7.540339946746826 25 10.4282398223877 25 13.5 C 25 16.5717601776123 23.80378913879395 19.45965957641602 21.63172912597656 21.63172912597656 C 19.45965957641602 23.80378913879395 16.5717601776123 25 13.5 25 Z" stroke="none"/>
          <path d="M 13.5 4 C 8.261680603027344 4 4 8.261680603027344 4 13.5 C 4 18.73831939697266 8.261680603027344 23 13.5 23 C 18.73831939697266 23 23 18.73831939697266 23 13.5 C 23 8.261680603027344 18.73831939697266 4 13.5 4 M 13.5 0 C 20.95584106445312 0 27 6.044160842895508 27 13.5 C 27 20.95584106445312 20.95584106445312 27 13.5 27 C 6.044160842895508 27 0 20.95584106445312 0 13.5 C 0 6.044160842895508 6.044160842895508 0 13.5 0 Z" stroke="none"/>
        </g>
        <g id="Path_65" data-name="Path 65" transform="translate(1636 1298)" fill="#ffe200">
          <path d="M 13.5 25 C 10.4282398223877 25 7.540339946746826 23.80378913879395 5.368269920349121 21.63172912597656 C 3.196209907531738 19.45965957641602 2 16.5717601776123 2 13.5 C 2 10.4282398223877 3.196209907531738 7.540339946746826 5.368269920349121 5.368269920349121 C 7.540339946746826 3.196209907531738 10.4282398223877 2 13.5 2 C 16.5717601776123 2 19.45965957641602 3.196209907531738 21.63172912597656 5.368269920349121 C 23.80378913879395 7.540339946746826 25 10.4282398223877 25 13.5 C 25 16.5717601776123 23.80378913879395 19.45965957641602 21.63172912597656 21.63172912597656 C 19.45965957641602 23.80378913879395 16.5717601776123 25 13.5 25 Z" stroke="none"/>
          <path d="M 13.5 4 C 8.261680603027344 4 4 8.261680603027344 4 13.5 C 4 18.73831939697266 8.261680603027344 23 13.5 23 C 18.73831939697266 23 23 18.73831939697266 23 13.5 C 23 8.261680603027344 18.73831939697266 4 13.5 4 M 13.5 0 C 20.95584106445312 0 27 6.044160842895508 27 13.5 C 27 20.95584106445312 20.95584106445312 27 13.5 27 C 6.044160842895508 27 0 20.95584106445312 0 13.5 C 0 6.044160842895508 6.044160842895508 0 13.5 0 Z" stroke="none"/>
        </g>
        <g id="Path_66" data-name="Path 66" transform="translate(1701 1212)" fill="#00ffcb">
          <path d="M 13.5 25 C 10.4282398223877 25 7.540339946746826 23.80378913879395 5.368269920349121 21.63172912597656 C 3.196209907531738 19.45965957641602 2 16.5717601776123 2 13.5 C 2 10.4282398223877 3.196209907531738 7.540339946746826 5.368269920349121 5.368269920349121 C 7.540339946746826 3.196209907531738 10.4282398223877 2 13.5 2 C 16.5717601776123 2 19.45965957641602 3.196209907531738 21.63172912597656 5.368269920349121 C 23.80378913879395 7.540339946746826 25 10.4282398223877 25 13.5 C 25 15.54471969604492 24.48134994506836 17.46871948242188 23.45845031738281 19.21857070922852 C 22.46129035949707 20.92440032958984 20.99538993835449 22.39808082580566 19.21923065185547 23.48027992248535 C 17.64104080200195 24.44697952270508 15.55792999267578 25 13.5 25 Z" stroke="none"/>
          <path d="M 13.5 4 C 8.261680603027344 4 4 8.261680603027344 4 13.5 C 4 18.73831939697266 8.261680603027344 23 13.5 23 C 15.19958972930908 23 16.90192985534668 22.55432891845703 18.17050933837891 21.77726936340332 L 18.1745491027832 21.77479934692383 L 18.1785888671875 21.77232933044434 C 21.2426700592041 19.90542030334473 23 16.8902702331543 23 13.5 C 23 8.261680603027344 18.73831939697266 4 13.5 4 M 13.5 0 C 20.95584106445312 0 27 6.044160842895508 27 13.5 C 27 18.38354110717773 24.40694046020508 22.66143989562988 20.2598705291748 25.1882209777832 C 18.47657012939453 26.28056907653809 16.07229995727539 27 13.5 27 C 6.044160842895508 27 0 20.95584106445312 0 13.5 C 0 6.044160842895508 6.044160842895508 0 13.5 0 Z" stroke="none"/>
        </g>
      </g>
    </g>
  </g>
</svg>
